<svg width="300" height="323" viewBox="0 0 300 323" fill="none" xmlns="http://www.w3.org/2000/svg">
<g clip-path="url(#clip0_1_13)">
<path d="M23.1 297.68C22.75 297.29 22.38 296.68 21.76 295.94C21.14 295.2 20.31 294.32 19.76 293.6C19.2589 293.031 18.9142 292.342 18.76 291.6C18.6677 290.891 18.6243 290.176 18.63 289.46C18.63 288.94 18.56 288.77 18.3 288.6C18.04 288.43 17.56 288.23 17.18 287.97C16.8 287.71 16.59 287.39 16.18 287.07C15.8203 286.791 15.4464 286.531 15.06 286.29C14.82 286.14 14.82 286.14 14.58 286.29C14.1513 286.512 13.7402 286.766 13.35 287.05C12.8464 287.417 12.3956 287.851 12.01 288.34C11.6085 288.977 11.1676 289.588 10.69 290.17C10.04 290.89 9.03 291.77 8.31 292.5C7.79324 292.986 7.31824 293.515 6.89 294.08C6.67 294.36 6.67001 294.36 6.22001 294.57C5.77001 294.78 4.88001 295.2 4.22001 295.57C3.64736 295.839 3.13406 296.22 2.71001 296.69C2.36984 297.173 2.10044 297.701 1.91001 298.26C1.63001 298.91 1.26001 299.73 0.910008 300.38C0.560008 301.03 0.240011 301.5 0.100011 301.72C-0.0399891 301.94 -0.0699891 301.97 0.100011 302.13C0.769069 302.609 1.30296 303.254 1.65 304C1.76 304.22 1.76 304.22 2.06 304.2C2.64601 304.182 3.23165 304.246 3.80001 304.39C4.60001 304.61 5.59001 305.06 6.63001 305.39C7.67001 305.72 8.72001 305.8 10.13 306.12C11.54 306.44 13.31 306.95 14.61 307.25C15.4812 307.46 16.3671 307.604 17.26 307.68C17.76 307.74 17.92 307.74 18.07 307.35C18.2186 306.85 18.3256 306.338 18.39 305.82C18.45 305.43 18.45 305.43 19.06 305.31C19.67 305.19 20.94 304.94 21.85 304.68C22.4568 304.515 23.0436 304.283 23.6 303.99C23.9 303.86 23.9 303.86 23.9 303.64C23.9 303.42 23.9 302.98 23.95 302.28C24 301.58 24.03 300.58 24.05 299.89C24.1163 299.439 24.0717 298.979 23.92 298.55C23.79 298.24 23.45 298.07 23.1 297.68Z" fill="url(#paint0_linear_1_13)"/>
<path d="M113.33 23.19C113.806 23.3009 114.274 23.4446 114.73 23.62C115.012 23.7392 115.269 23.9086 115.49 24.12C115.62 24.22 115.64 24.22 116.4 24.18C117.16 24.14 118.65 24.03 119.81 24.01C120.598 23.9917 121.385 24.0184 122.17 24.09C122.56 24.09 122.56 24.09 122.73 23.95C123.012 23.6741 123.309 23.4137 123.62 23.17C124.03 22.84 124.53 22.46 124.9 22.17C125.27 21.88 125.52 21.71 125.55 21.6C125.58 21.49 125.42 21.47 125.29 21.37C125.215 21.3225 125.155 21.2554 125.117 21.176C125.078 21.0966 125.062 21.008 125.07 20.92C125.07 20.76 125.29 20.63 125.72 20.4C126.304 20.1282 126.866 19.8106 127.4 19.45C127.845 19.1173 128.254 18.7385 128.62 18.32C128.85 18.07 128.85 18.07 128.7 17.96C128.55 17.85 128.25 17.59 128.03 17.36C127.829 17.1076 127.573 16.9056 127.28 16.77C126.758 16.6179 126.211 16.567 125.67 16.62C124.85 16.62 123.67 16.71 123.14 16.75C122.61 16.79 122.56 16.75 122.47 16.92C122.245 17.2568 121.952 17.5429 121.61 17.76C120.783 18.3206 119.925 18.8348 119.04 19.3C118.04 19.9 116.85 20.53 116.04 21C115.489 21.3384 114.918 21.6423 114.33 21.91C114.025 22.0331 113.706 22.1171 113.38 22.16C113.19 22.16 113.19 22.16 113.15 22.34C113.128 22.5424 113.091 22.7429 113.04 22.94C113.01 23.1 113.01 23.1 113.33 23.19Z" fill="url(#paint2_linear_1_13)"/>
<path d="M173.55 222.35C176.032 219.575 178.274 216.595 180.25 213.44C181.85 210.9 182.74 209.06 183.64 207.62C184.304 206.558 185.056 205.554 185.89 204.62C186.33 204.12 186.33 204.12 185.89 204.43C185.45 204.74 184.46 205.43 183.25 206.11C182.04 206.79 180.6 207.57 178.74 208.42C176.88 209.27 174.65 210.19 172.18 211.14C169.71 212.09 167.01 213.14 165.07 213.92C163.747 214.473 162.455 215.097 161.2 215.79C160.48 216.2 160.2 216.35 160.12 216.2C160.04 216.05 160.21 215.62 161.12 214.72C162.816 213.243 164.628 211.905 166.54 210.72C169.842 208.572 173.257 206.603 176.77 204.82C180.49 202.9 184.19 201.34 186.69 199.99C188.915 198.852 190.877 197.261 192.45 195.32C194.45 193.08 197.11 189.69 198.85 187.41C200.59 185.13 201.4 183.98 202.5 182.71C203.6 181.44 205.01 180.07 205.55 179.43C206.09 178.79 205.77 178.87 205.37 179.06C204.97 179.25 204.51 179.54 203.73 179.92C202.833 180.388 201.873 180.724 200.88 180.92C200.134 181.017 199.376 180.966 198.65 180.77C198.24 180.66 198.24 180.66 198.85 180.4C199.952 179.949 200.996 179.368 201.96 178.67C203.227 177.714 204.305 176.53 205.14 175.18C205.96 173.84 206.43 172.4 207.06 171.56C207.609 170.917 208.331 170.446 209.14 170.2C209.635 169.968 210.113 169.701 210.57 169.4C210.82 169.22 210.82 169.22 210.57 169.27L208.82 169.61C208 169.79 206.96 170.02 205.82 170.18C204.68 170.34 203.55 170.48 202.96 170.54C202.37 170.6 202.38 170.54 202.96 170.22C203.993 169.567 204.944 168.792 205.79 167.91C207.003 166.63 208.015 165.174 208.79 163.59C209.48 162.11 209.71 160.83 210.17 159.8C210.552 158.978 211.062 158.222 211.68 157.56C212.03 157.17 212.03 157.17 211.68 157.45C211.33 157.73 210.51 158.29 209.58 158.85C208.761 159.37 207.909 159.838 207.03 160.25C206.47 160.51 206.38 160.49 206.4 160.25C206.461 159.805 206.652 159.387 206.95 159.05C207.42 158.42 208.24 157.49 209.06 156.22C209.988 154.707 210.771 153.11 211.4 151.45C212.15 149.56 212.83 147.38 213.69 145.45C214.489 143.655 215.474 141.949 216.63 140.36C217.71 138.83 218.84 137.46 219.85 136.28C220.86 135.1 221.73 134.16 222.02 133.75C222.31 133.34 222.02 133.52 221.48 133.97C220.94 134.42 220 135.16 219.16 135.89C218.32 136.62 217.58 137.34 215.48 139.17C213.38 141 209.95 143.87 206.23 147.04C202.51 150.21 198.49 153.67 194.6 157.04L183.4 166.8C179.9 169.86 176.69 172.66 173.95 174.95C171.21 177.24 168.95 179.09 167.53 180.3C166.11 181.51 165.45 182.07 164.76 182.61C164.07 183.15 163.35 183.61 162.76 184.07C162.297 184.426 161.802 184.737 161.28 185C160.92 185.13 160.74 185 160.46 184.74C160.089 184.355 159.755 183.936 159.46 183.49C159.13 183.02 158.87 182.54 158.64 182.26C158.41 181.98 158.22 181.96 158.01 182.03C157.8 182.1 157.53 182.35 157.19 182.5C156.759 182.656 156.307 182.743 155.85 182.76C155.326 182.789 154.805 182.853 154.29 182.95C153.851 183.023 153.457 183.263 153.19 183.62C152.927 183.952 152.739 184.338 152.64 184.75C152.64 184.98 152.88 184.85 153.32 184.61C153.837 184.301 154.379 184.037 154.94 183.82C155.408 183.672 155.901 183.621 156.39 183.67C156.822 183.687 157.253 183.73 157.68 183.8C158.032 183.86 158.371 183.981 158.68 184.16C158.998 184.355 159.241 184.65 159.37 185C159.543 185.492 159.567 186.024 159.44 186.53C159.216 187.482 158.859 188.398 158.38 189.25C157.589 190.698 156.675 192.077 155.65 193.37C154.38 194.97 152.74 196.8 151.44 198.12C150.5 199.115 149.48 200.031 148.39 200.86C147.61 201.44 147 201.74 146.59 202.04C146.299 202.263 146.034 202.518 145.8 202.8C145.73 202.89 145.633 202.955 145.523 202.986C145.413 203.017 145.296 203.011 145.19 202.97C144.787 202.843 144.448 202.568 144.24 202.2C143.963 201.686 143.745 201.143 143.59 200.58C143.43 200.246 143.329 199.888 143.29 199.52C143.342 198.971 143.473 198.432 143.68 197.92C144.041 197.021 144.316 196.091 144.5 195.14C144.713 193.713 144.813 192.272 144.8 190.83C144.8 189.15 144.8 187.27 144.8 186.32C144.8 185.37 144.8 185.37 144.63 185.2C144.46 185.03 144.13 184.68 143.74 184.2C143.35 183.72 142.9 183.2 142.68 182.97C142.46 182.74 142.46 182.69 142.46 181.97C142.46 181.25 142.46 179.69 142.33 178.28C142.2 176.87 141.95 175.57 141.82 174.86C141.69 174.15 141.71 174.02 141.53 173.95C141.415 173.905 141.293 173.881 141.17 173.88C141.056 173.88 140.944 173.904 140.84 173.95C140.65 174.02 140.65 174.16 140.54 174.86C140.313 175.99 140.146 177.132 140.04 178.28C139.91 179.69 139.91 181.2 139.91 181.97C139.91 182.74 139.91 182.71 139.68 182.97C139.45 183.23 139 183.77 138.61 184.2C138.22 184.63 137.9 184.98 137.73 185.2C137.56 185.42 137.56 185.37 137.56 186.32C137.56 187.27 137.56 189.15 137.56 190.83C137.542 192.272 137.642 193.714 137.86 195.14C138.049 196.089 138.324 197.02 138.68 197.92C138.887 198.432 139.018 198.971 139.07 199.52C139.033 199.891 138.924 200.251 138.75 200.58C138.607 201.144 138.395 201.688 138.12 202.2C137.903 202.56 137.567 202.832 137.17 202.97C137.064 203.011 136.947 203.017 136.837 202.986C136.727 202.955 136.63 202.89 136.56 202.8C136.325 202.522 136.064 202.268 135.78 202.04C135.37 201.74 134.78 201.44 133.97 200.86C132.871 200.035 131.844 199.119 130.9 198.12C129.421 196.614 128.026 195.028 126.72 193.37C125.685 192.081 124.768 190.703 123.98 189.25C123.505 188.395 123.149 187.48 122.92 186.53C122.795 186.023 122.823 185.491 123 185C123.129 184.653 123.368 184.359 123.68 184.16C124.005 183.978 124.361 183.856 124.73 183.8C125.154 183.73 125.581 183.687 126.01 183.67C126.498 183.621 126.992 183.672 127.46 183.82C128.02 184.041 128.561 184.305 129.08 184.61C129.53 184.85 129.79 184.98 129.77 184.75C129.671 184.336 129.48 183.95 129.21 183.62C128.945 183.262 128.55 183.021 128.11 182.95C127.595 182.852 127.074 182.789 126.55 182.76C126.092 182.745 125.64 182.657 125.21 182.5C124.86 182.35 124.61 182.13 124.39 182.03C124.274 181.992 124.149 181.994 124.035 182.035C123.921 182.077 123.824 182.156 123.76 182.26C123.54 182.54 123.28 183.02 122.94 183.49C122.642 183.934 122.308 184.352 121.94 184.74C121.66 185.02 121.47 185.13 121.12 185C120.594 184.74 120.095 184.429 119.63 184.07C119 183.62 118.27 183.13 117.58 182.61C116.89 182.09 116.24 181.49 114.81 180.3C113.38 179.11 111.11 177.3 108.39 174.95C105.67 172.6 102.44 169.86 98.94 166.8C95.44 163.74 91.65 160.43 87.74 157.04C83.83 153.65 79.83 150.18 76.11 147.04C72.39 143.9 68.95 140.98 66.87 139.17C64.79 137.36 64 136.62 63.18 135.89C62.36 135.16 61.44 134.44 60.86 133.97C60.28 133.5 60 133.35 60.32 133.75C60.64 134.15 61.49 135.13 62.5 136.28C63.51 137.43 64.64 138.83 65.71 140.36C66.8698 141.946 67.8555 143.653 68.65 145.45C69.51 147.35 70.2 149.53 70.94 151.45C71.5676 153.112 72.3546 154.71 73.29 156.22C74.1 157.49 74.92 158.42 75.39 159.05C75.6795 159.393 75.8727 159.808 75.95 160.25C75.95 160.45 75.87 160.47 75.31 160.25C74.431 159.832 73.5764 159.364 72.75 158.85C71.84 158.29 71.05 157.73 70.66 157.45C70.27 157.17 70.27 157.17 70.66 157.56C71.2744 158.223 71.7806 158.979 72.16 159.8C72.63 160.8 72.85 162.11 73.54 163.59C74.3159 165.173 75.3274 166.63 76.54 167.91C77.3789 168.796 78.3264 169.572 79.36 170.22C79.92 170.58 79.92 170.58 79.36 170.54C78.8 170.5 77.61 170.37 76.51 170.18C75.41 169.99 74.35 169.79 73.51 169.61C72.67 169.43 72.08 169.33 71.78 169.27C71.48 169.21 71.47 169.22 71.78 169.4C72.2366 169.701 72.7145 169.968 73.21 170.2C74.0209 170.447 74.7453 170.919 75.3 171.56C75.93 172.4 76.39 173.84 77.21 175.18C78.0316 176.534 79.1041 177.718 80.37 178.67C81.3359 179.366 82.3796 179.946 83.48 180.4C84.11 180.66 84.11 180.66 83.7 180.77C82.9739 180.967 82.2159 181.018 81.47 180.92C80.4804 180.724 79.5239 180.388 78.63 179.92C77.84 179.54 77.38 179.25 76.99 179.06C76.6 178.87 76.26 178.78 76.8 179.43C77.34 180.08 78.74 181.43 79.8 182.71C80.86 183.99 81.74 185.14 83.47 187.41C85.2 189.68 87.88 193.08 89.87 195.32C91.4446 197.264 93.4105 198.855 95.64 199.99C98.13 201.34 101.83 202.9 105.55 204.82C109.057 206.626 112.468 208.612 115.77 210.77C117.677 211.957 119.486 213.295 121.18 214.77C122.11 215.67 122.28 216.12 122.18 216.25C122.08 216.38 121.85 216.25 121.1 215.84C119.853 215.144 118.568 214.519 117.25 213.97C115.3 213.15 112.6 212.16 110.13 211.19C107.66 210.22 105.42 209.31 103.56 208.47C101.7 207.63 100.27 206.85 99.06 206.16C97.85 205.47 96.92 204.8 96.44 204.48C95.96 204.16 95.95 204.17 96.44 204.67C97.2671 205.61 98.0194 206.613 98.69 207.67C99.58 209.11 100.47 210.95 102.07 213.49C104.04 216.649 106.282 219.631 108.77 222.4C111.58 225.51 114.93 228.53 118.11 231.46C121.169 234.14 124.024 237.045 126.65 240.15C128.704 242.781 130.405 245.668 131.71 248.74C132.615 250.859 133.331 253.055 133.85 255.3C134.206 256.799 134.466 258.318 134.63 259.85C134.781 261.282 134.854 262.72 134.85 264.16C134.85 265.65 134.78 267.23 134.78 268.42C134.75 269.33 134.83 270.24 135.02 271.13C135.183 271.741 135.39 272.339 135.64 272.92C135.851 273.474 135.976 274.058 136.01 274.65C135.974 275.268 135.998 275.887 136.08 276.5C136.251 277.189 136.595 277.822 137.08 278.34C137.469 278.783 137.96 279.127 138.51 279.34C138.832 279.444 139.174 279.475 139.51 279.43C139.72 279.43 139.72 279.43 139.51 279.37C139.216 279.328 138.933 279.226 138.68 279.07C138.399 278.856 138.207 278.546 138.14 278.2C138.06 277.81 138.06 277.36 138.01 276.93C137.968 276.519 137.86 276.117 137.69 275.74C137.52 275.38 137.28 275.1 137.15 274.74C137.017 274.48 136.992 274.178 137.08 273.9C137.17 273.73 137.41 273.79 137.56 273.84C137.71 273.89 137.74 273.99 137.91 274.22C138.128 274.51 138.387 274.766 138.68 274.98C138.975 275.182 139.323 275.293 139.68 275.3C139.909 275.323 140.141 275.323 140.37 275.3C140.5 275.3 140.5 275.3 140.54 277.07C140.58 278.84 140.59 282.48 140.59 284.81C140.63 286.19 140.556 287.572 140.37 288.94C140.322 289.409 140.176 289.862 139.94 290.27C139.79 290.55 139.63 290.73 139.55 290.88C139.47 291.03 139.48 291.13 139.65 291.35C139.916 291.651 140.138 291.987 140.31 292.35C140.488 292.774 140.579 293.23 140.58 293.69C140.604 294.084 140.584 294.48 140.52 294.87C140.432 295.158 140.308 295.434 140.15 295.69C139.974 296.035 139.908 296.426 139.96 296.81C140.207 297.577 140.371 298.368 140.45 299.17C140.527 300.75 140.494 302.334 140.35 303.91C140.32 304.772 140.126 305.62 139.78 306.41C139.42 307.19 138.85 308.34 138.32 309.33L136.93 312.13C136.48 313.04 136.02 314.05 135.68 314.68C135.494 315.058 135.277 315.419 135.03 315.76C134.94 315.91 134.94 315.91 135.09 315.95C135.322 315.997 135.534 316.112 135.7 316.28C135.804 316.404 135.882 316.547 135.93 316.702C135.978 316.856 135.995 317.019 135.98 317.18C135.91 317.499 135.792 317.806 135.63 318.09C135.46 318.41 135.33 318.76 135.25 318.95C135.17 319.14 135.18 319.14 135.4 319.08L136.4 318.8C136.533 318.731 136.68 318.695 136.83 318.695C136.98 318.695 137.127 318.731 137.26 318.8C137.841 319.135 138.387 319.527 138.89 319.97C139.604 320.543 140.23 321.217 140.75 321.97C140.882 322.243 141.065 322.487 141.29 322.69C141.527 322.493 141.718 322.248 141.85 321.97C142.365 321.213 142.992 320.538 143.71 319.97C144.216 319.526 144.766 319.134 145.35 318.8C145.481 318.731 145.627 318.695 145.775 318.695C145.923 318.695 146.069 318.731 146.2 318.8L147.2 319.08C147.42 319.14 147.42 319.14 147.35 318.95C147.28 318.76 147.13 318.41 146.98 318.09C146.815 317.807 146.693 317.5 146.62 317.18C146.586 317.039 146.584 316.892 146.612 316.75C146.641 316.608 146.7 316.474 146.786 316.357C146.871 316.24 146.981 316.143 147.108 316.073C147.235 316.002 147.375 315.961 147.52 315.95C147.66 315.95 147.66 315.95 147.52 315.76C147.38 315.57 147.23 315.32 146.89 314.68C146.55 314.04 146.09 313.04 145.63 312.13C145.17 311.22 144.75 310.34 144.23 309.33C143.71 308.32 143.15 307.19 142.8 306.41C142.436 305.626 142.239 304.774 142.22 303.91C142.083 302.334 142.046 300.751 142.11 299.17C142.202 298.371 142.363 297.582 142.59 296.81C142.665 296.429 142.609 296.034 142.43 295.69C142.203 295.426 142.011 295.134 141.86 294.82C141.775 294.433 141.758 294.033 141.81 293.64C141.801 293.182 141.882 292.726 142.05 292.3C142.235 291.938 142.467 291.601 142.74 291.3C142.91 291.08 142.91 290.98 142.83 290.83C142.75 290.68 142.59 290.5 142.44 290.22C142.204 289.812 142.058 289.359 142.01 288.89C141.829 287.521 141.756 286.14 141.79 284.76C141.79 282.43 141.79 278.83 141.85 277.02C141.91 275.21 141.85 275.23 142.01 275.25C142.152 275.277 142.298 275.277 142.44 275.25C142.798 275.245 143.146 275.134 143.44 274.93C143.73 274.716 143.986 274.46 144.2 274.17C144.37 273.94 144.41 273.87 144.56 273.79C144.71 273.71 144.95 273.68 145.04 273.85C145.089 273.987 145.107 274.134 145.093 274.279C145.079 274.424 145.034 274.564 144.96 274.69C144.83 275.02 144.59 275.3 144.43 275.69C144.256 276.065 144.147 276.468 144.11 276.88C144.093 277.306 144.05 277.73 143.98 278.15C143.913 278.496 143.72 278.806 143.44 279.02C143.192 279.179 142.912 279.282 142.62 279.32C142.42 279.32 142.42 279.32 142.62 279.38C142.956 279.425 143.298 279.395 143.62 279.29C144.176 279.078 144.674 278.735 145.07 278.29C145.549 277.768 145.892 277.136 146.07 276.45C146.15 275.837 146.177 275.218 146.15 274.6C146.091 274.021 146.128 273.437 146.26 272.87C146.493 272.284 146.697 271.687 146.87 271.08C147.06 270.19 147.14 269.28 147.11 268.37C147.11 267.18 147.04 265.6 147.04 264.11C147.127 262.665 147.294 261.226 147.54 259.8C147.789 258.266 148.123 256.747 148.54 255.25C149.054 253.003 149.77 250.808 150.68 248.69C151.989 245.62 153.69 242.733 155.74 240.1C158.366 236.995 161.221 234.09 164.28 231.41C167.39 228.48 170.74 225.46 173.55 222.35Z" fill="url(#paint3_linear_1_13)"/>
<path d="M138.26 193.07C138.246 192.216 138.501 191.38 138.99 190.68C139.703 193.016 139.837 195.491 139.38 197.89C138.769 196.348 138.391 194.724 138.26 193.07V193.07Z" fill="url(#paint4_linear_1_13)"/>
<path d="M139.86 274.4C139.73 274.3 139.49 274.1 139.17 273.87C138.812 273.65 138.477 273.396 138.17 273.11C137.95 272.836 137.746 272.548 137.56 272.25C137.221 271.852 136.919 271.424 136.66 270.97C136.577 270.8 136.534 270.614 136.534 270.425C136.534 270.236 136.577 270.05 136.66 269.88C136.81 269.68 137.05 269.68 137.2 269.49C137.347 269.178 137.386 268.826 137.31 268.49C137.221 267.951 137.052 267.429 136.81 266.94C136.468 266.343 136.17 265.721 135.92 265.08C135.716 264.308 135.658 263.504 135.75 262.71C135.816 261.539 135.953 260.374 136.16 259.22C136.37 258.22 136.63 257.53 136.68 256.93C136.714 256.4 136.625 255.87 136.42 255.38C136.2 254.973 136.074 254.522 136.05 254.06C136.066 253.142 136.147 252.227 136.29 251.32C136.322 250.624 136.499 249.943 136.81 249.32C137.05 249.04 137.43 249.25 137.69 249.53C137.934 249.822 138.111 250.163 138.21 250.53C138.305 251.108 138.349 251.694 138.34 252.28C138.39 253.28 138.49 254.87 138.71 256.53C138.93 258.19 139.29 259.89 139.51 261.25C139.744 262.725 139.861 264.216 139.86 265.71C139.86 267.85 139.92 271.13 139.92 272.77C139.92 274.41 140.03 274.49 139.86 274.4Z" fill="url(#paint5_linear_1_13)"/>
<path d="M143.32 190.68C143.809 191.38 144.064 192.216 144.05 193.07C143.919 194.724 143.541 196.348 142.93 197.89C142.473 195.491 142.607 193.016 143.32 190.68V190.68Z" fill="url(#paint6_linear_1_13)"/>
<path d="M145.31 255.38C145.102 255.869 145.006 256.399 145.03 256.93C144.959 257.692 144.959 258.458 145.03 259.22C145.049 260.385 144.999 261.551 144.88 262.71C144.99 263.409 144.939 264.124 144.73 264.8C144.465 265.529 144.161 266.243 143.82 266.94C143.578 267.428 143.416 267.951 143.34 268.49C143.25 268.823 143.282 269.178 143.43 269.49C143.588 269.689 143.713 269.911 143.8 270.15C144.03 270.72 144.06 270.93 143.62 272.25C143.47 272.66 143.8 272.85 143.56 273.11C143.264 273.389 142.947 273.643 142.61 273.87C142.28 274.1 142.32 274.3 142.19 274.4C142.06 274.5 142.06 274.49 142.07 272.83C142.08 271.17 142.07 267.91 142.13 265.77C142.134 264.277 142.251 262.786 142.48 261.31C142.69 259.95 143.06 258.25 143.28 256.59C143.5 254.93 143.6 253.33 143.66 252.34C143.641 251.754 143.684 251.167 143.79 250.59C143.877 250.218 144.056 249.875 144.31 249.59C144.57 249.31 144.79 248.99 145.03 249.27C145.27 249.55 145.24 250.27 145.37 251.21C145.509 252.137 145.582 253.073 145.59 254.01C145.583 254.48 145.488 254.945 145.31 255.38V255.38Z" fill="url(#paint7_linear_1_13)"/>
<path d="M298.98 302.64C298.73 302.473 298.452 302.351 298.16 302.28C297.85 302.23 297.44 302.28 297.16 302.21C296.864 302.173 296.579 302.078 296.32 301.93C295.963 301.732 295.647 301.468 295.39 301.15C295.249 300.892 295.174 300.604 295.17 300.31C295.17 300.14 295.17 300.14 294.98 300.14C294.642 300.157 294.303 300.113 293.98 300.01C293.462 299.845 292.98 299.584 292.56 299.24C292.226 298.882 291.829 298.587 291.39 298.37C290.77 298.209 290.127 298.158 289.49 298.22C288.73 298.248 287.97 298.154 287.24 297.94C286.104 297.588 285.003 297.133 283.95 296.58C283.138 296.191 282.423 295.623 281.86 294.92C281.494 294.203 281.044 293.531 280.52 292.92C279.729 292.401 278.904 291.937 278.05 291.53C277.018 290.837 276.083 290.01 275.27 289.07C274.21 287.95 272.95 286.51 271.65 285.07C270.35 283.63 269 282.07 268.09 280.89C267.472 280.092 266.907 279.253 266.4 278.38C266.14 277.93 266.14 277.93 265.84 278.15C265.368 278.509 264.877 278.843 264.37 279.15C263.958 279.394 263.53 279.611 263.09 279.8C262.85 279.89 262.85 279.89 262.88 279.97C262.91 280.05 262.96 280.17 262.79 280.58C262.514 281.121 262.197 281.639 261.84 282.13C261.599 282.461 261.332 282.772 261.04 283.06C260.89 283.23 260.89 283.23 261.04 282.84C261.19 282.45 261.43 281.72 261.64 280.84C261.78 279.958 262.021 279.096 262.36 278.27C262.746 277.636 263.224 277.063 263.78 276.57C264.229 276.114 264.517 275.524 264.6 274.89C264.73 274.11 264.73 273.03 264.86 272.38C264.905 271.994 265.09 271.639 265.38 271.38C265.51 271.27 265.51 271.27 265.15 271.08C264.579 270.822 264.086 270.419 263.72 269.91C263.397 269.12 263.129 268.308 262.92 267.48C262.55 266.55 261.84 265.48 261.08 263.72C260.32 261.96 259.48 259.26 258.72 257.21C258.193 255.662 257.499 254.177 256.65 252.78C256.275 252.232 255.824 251.74 255.31 251.32C255.054 250.953 254.823 250.569 254.62 250.17C254.44 249.849 254.211 249.559 253.94 249.31C253.73 249.16 253.58 249.16 253.47 249.31C253.364 249.497 253.247 249.677 253.12 249.85C253.082 249.898 253.035 249.938 252.981 249.967C252.928 249.996 252.869 250.014 252.808 250.02C252.747 250.025 252.686 250.018 252.628 250C252.57 249.981 252.516 249.95 252.47 249.91C252.206 249.519 251.963 249.115 251.74 248.7C251.44 248.23 251.03 247.84 250.83 247.56C250.74 247.468 250.681 247.35 250.662 247.223C250.642 247.095 250.662 246.965 250.72 246.85C250.81 246.59 251 246.24 251.15 245.85C251.253 245.68 251.308 245.484 251.308 245.285C251.308 245.086 251.253 244.89 251.15 244.72C250.87 244.25 250.2 243.72 249.4 242.72C248.6 241.72 247.65 240.37 247.07 239.53C246.626 238.99 246.222 238.418 245.86 237.82C245.475 236.978 245.034 236.163 244.54 235.38C243.88 234.43 242.94 233.38 242.06 231.97C241.01 230.224 240.091 228.402 239.31 226.52C238.31 224.21 237.11 221.34 236.39 219.14C235.883 217.681 235.486 216.187 235.2 214.67C235.166 214.292 235.057 213.925 234.88 213.59C234.71 213.27 234.36 212.59 233.99 212C233.62 211.41 233.21 210.75 232.99 210.46C232.77 210.17 232.79 210.14 232.36 210.16C231.93 210.18 231.09 210.21 230.52 210.27C230.189 210.323 229.851 210.323 229.52 210.27C229.39 210.19 229.45 209.99 229.52 209.9C229.59 209.81 229.52 209.78 229.39 209.73C229.166 209.627 228.936 209.54 228.7 209.47C228.53 209.39 228.53 209.39 228.29 209.6C227.927 209.883 227.543 210.137 227.14 210.36C226.907 210.493 226.636 210.545 226.37 210.51C226.24 210.51 226.24 210.51 226.45 209.73C226.66 208.95 227.1 207.49 227.34 206.41C227.502 205.527 227.719 204.656 227.99 203.8C228.29 202.96 228.85 201.97 229.13 201.19C229.428 200.467 229.453 199.66 229.2 198.92C228.801 197.828 228.347 196.757 227.84 195.71C227.29 194.4 226.71 192.86 225.84 190.58C224.97 188.3 223.84 185.29 222.99 183.2C222.14 181.11 221.82 180.01 221.48 178.95C221.14 177.89 220.91 176.95 220.48 175.78C220.05 174.61 219.55 173.32 219.16 172.2C218.77 171.08 218.48 170.13 218.16 169.2C217.84 168.27 217.47 167.37 217.16 166.76C216.85 166.15 216.75 165.83 216.55 165.7C216.35 165.57 216.05 165.6 215.71 165.92C215.293 166.428 214.909 166.963 214.56 167.52C214.05 168.248 213.608 169.021 213.24 169.83C212.92 170.6 212.83 171.31 212.68 171.72C212.53 172.13 212.36 172.26 212.23 172.31C212.1 172.36 212.03 172.41 211.9 172.2C211.77 171.99 211.58 171.59 211.38 171.46C211.18 171.33 211.01 171.46 210.65 172.05C210.29 172.64 209.74 173.62 208.79 175.13C207.628 176.84 206.573 178.62 205.63 180.46C205.021 181.859 204.546 183.312 204.21 184.8C204.088 185.475 203.803 186.11 203.38 186.65C202.952 187.132 202.436 187.529 201.86 187.82C200.883 188.285 200.028 188.969 199.36 189.82C198.603 191.106 197.935 192.443 197.36 193.82C196.789 194.804 196.086 195.706 195.27 196.5C194.4 197.5 193.27 198.87 192.35 199.91C191.43 200.95 190.86 201.65 190.4 202.23C189.94 202.81 189.6 203.23 189.4 203.51C189.2 203.79 189.23 203.75 189.29 204.24C189.388 205.05 189.445 205.864 189.46 206.68C189.461 207.435 189.418 208.19 189.33 208.94C189.33 209.37 189.33 209.37 189.21 209.31C189.049 209.182 188.902 209.038 188.77 208.88C188.493 208.563 188.235 208.229 188 207.88C187.837 207.633 187.69 207.376 187.56 207.11C187.48 206.98 187.48 206.98 187.22 207.24C186.96 207.5 186.4 208.06 185.83 208.75C185.26 209.44 184.66 210.3 183.91 211.21C183.16 212.12 182.29 213.13 181.91 213.62C181.53 214.11 181.46 214.12 181.46 214.31C181.46 214.5 181.46 214.83 181.46 215.26C181.46 215.69 181.4 216.17 181.39 216.41C181.38 216.65 181.39 216.65 181.2 216.77L180.33 217.36C179.936 217.606 179.596 217.929 179.33 218.31C179.048 218.827 178.807 219.365 178.61 219.92C178.294 220.598 177.898 221.236 177.43 221.82C177.126 222.188 176.769 222.508 176.37 222.77C176.17 222.9 176.17 222.9 176.37 223.16C176.57 223.42 176.97 223.96 177.37 224.56C177.77 225.16 178.15 225.86 178.37 226.2C178.442 226.29 178.494 226.395 178.521 226.507C178.549 226.62 178.552 226.737 178.53 226.85C178.484 227.393 178.411 227.934 178.31 228.47C178.211 229.024 178.081 229.571 177.92 230.11C177.83 230.45 177.83 230.45 177.92 230.56L179.03 231.83C179.82 232.74 181.14 234.29 181.97 235.28C182.563 235.937 183.096 236.646 183.56 237.4C184.005 238.155 184.383 238.949 184.69 239.77C184.853 240.236 184.934 240.726 184.93 241.22C184.93 241.48 184.93 241.48 185.14 241.69C185.648 242.297 186.072 242.97 186.4 243.69C187.09 245.01 188.06 247.21 188.63 248.55C189.2 249.89 189.34 250.38 189.42 250.62C189.5 250.86 189.49 250.86 189.66 250.92L190.33 251.14C190.49 251.2 190.49 251.2 190.51 251.78C190.53 252.36 190.51 253.53 190.57 254.89C190.63 256.25 190.63 257.89 190.77 259.16C190.91 260.43 191.18 261.56 191.2 262.09C191.22 262.62 191 262.63 190.77 262.76C190.505 262.976 190.276 263.233 190.09 263.52C189.84 263.86 189.58 264.25 189.45 264.45C189.32 264.65 189.32 264.66 189.56 265.16C190.053 266.116 190.441 267.122 190.72 268.16C191.104 269.699 191.359 271.268 191.48 272.85C191.575 273.931 191.605 275.016 191.57 276.1C191.57 276.67 191.57 276.67 191.85 276.71C192.347 276.798 192.838 276.919 193.32 277.07C193.913 277.277 194.483 277.545 195.02 277.87C195.39 278.11 195.44 278.26 195.02 278.59C194.413 279.024 193.771 279.405 193.1 279.73C192.747 279.923 192.379 280.087 192 280.22C191.85 280.22 191.85 280.22 191.87 280.89C191.958 281.788 191.958 282.692 191.87 283.59C191.79 284.208 191.501 284.78 191.05 285.21C190.681 285.513 190.387 285.896 190.19 286.33C190.04 286.76 190.1 287.33 189.97 287.67C189.84 288.01 189.52 288.05 189.3 288.67C189.08 289.29 188.94 290.62 188.68 292.04C188.42 293.46 188.01 295.04 187.81 295.94C187.61 296.84 187.55 297.21 186.88 297.75C185.829 298.513 184.699 299.16 183.51 299.68C182.284 300.25 181.009 300.709 179.7 301.05C179.099 301.208 178.481 301.289 177.86 301.29C177.58 301.29 177.58 301.29 177.22 301.7C176.52 302.498 175.728 303.209 174.86 303.82C173.6 304.734 172.262 305.534 170.86 306.21C170.022 306.605 169.156 306.939 168.27 307.21C167.81 307.34 167.81 307.34 168.18 307.46C168.81 307.656 169.472 307.73 170.13 307.68C171.28 307.495 172.393 307.13 173.43 306.6C174.79 305.97 176.43 305.09 177.8 304.49C179.141 303.923 180.567 303.585 182.02 303.49C183.76 303.367 185.506 303.337 187.25 303.4C188.136 303.415 189.014 303.556 189.86 303.82C190.23 304.014 190.614 304.178 191.01 304.31C191.52 304.4 192.26 304.4 193.08 304.51C194.01 304.652 194.924 304.883 195.81 305.2C196.81 305.54 197.95 305.99 198.88 306.38C199.665 306.732 200.482 307.007 201.32 307.2C202.08 307.31 202.87 307.2 204.26 307.5C205.65 307.8 207.7 308.37 209.64 308.67C211.193 308.89 212.761 308.99 214.33 308.97C215.26 308.97 215.26 308.97 214.99 308.97C214.42 308.917 213.859 308.792 213.32 308.6C212.187 308.231 211.081 307.783 210.01 307.26C209.01 306.72 208.17 306.18 207.35 305.82C206.53 305.46 205.66 305.3 204.89 305.02C204.12 304.74 203.46 304.33 203.78 303.92C204.612 303.323 205.616 303.014 206.64 303.04C207.818 303.059 208.983 303.289 210.08 303.72C211.08 304.07 212.08 304.42 212.48 304.61C212.631 304.695 212.799 304.745 212.972 304.758C213.145 304.77 213.319 304.743 213.48 304.68L216.57 303.99C218.622 303.485 220.713 303.15 222.82 302.99C224.682 302.935 226.545 303.096 228.37 303.47C229.52 303.72 229.69 303.87 230.32 303.96C230.95 304.05 232.03 304.09 232.96 304.16C233.861 304.196 234.754 304.34 235.62 304.59C236.57 304.87 237.69 305.34 239.21 305.79C240.73 306.24 242.71 306.66 244.05 306.94L246.41 307.44C246.76 307.5 246.76 307.5 246.67 307.44C246.504 307.185 246.29 306.964 246.04 306.79C245.507 306.347 244.927 305.965 244.31 305.65C243.6 305.28 242.84 304.96 242.36 304.7C242.065 304.573 241.812 304.365 241.63 304.1C241.56 303.95 241.63 303.88 241.85 303.75C242.422 303.53 243.027 303.408 243.64 303.39C244.77 303.28 246.56 303.24 248.25 303.24C249.94 303.24 251.51 303.24 252.25 303.32C252.99 303.4 253.03 303.32 253.03 303.19C253.03 303.06 253.03 302.76 253.44 302.48C254.206 302.121 255.035 301.914 255.88 301.87C257.234 301.756 258.596 301.756 259.95 301.87C261.508 301.928 263.056 302.146 264.57 302.52C265.244 302.691 265.836 303.095 266.24 303.66C266.45 303.92 266.45 303.92 266.78 303.79C267.403 303.568 268.046 303.407 268.7 303.31C269.595 303.203 270.501 303.227 271.39 303.38C272.23 303.55 272.86 303.81 273.44 303.9C273.884 303.968 274.336 303.968 274.78 303.9C275.04 303.9 275.04 303.9 274.87 303.71C274.587 303.452 274.327 303.171 274.09 302.87C273.802 302.456 273.57 302.005 273.4 301.53C273.27 301.12 273.27 300.82 273.4 300.67C273.53 300.52 273.85 300.56 274.2 300.82C274.666 301.226 275.085 301.682 275.45 302.18C275.957 302.847 276.58 303.416 277.29 303.86C278.01 304.236 278.808 304.438 279.62 304.45C280.21 304.45 280.47 304.34 280.23 304.23C279.648 304.067 279.09 303.828 278.57 303.52C277.882 302.931 277.308 302.219 276.88 301.42C276.429 300.724 276.092 299.961 275.88 299.16C275.81 298.64 275.854 298.111 276.01 297.61C276.06 297.32 276.01 297.32 276.49 297.26C277.181 297.153 277.882 297.123 278.58 297.17C279.307 297.269 279.996 297.555 280.58 298C281.4 298.51 282.52 299.29 283.58 300.09C284.584 300.913 285.647 301.662 286.76 302.33C287.667 302.811 288.659 303.114 289.68 303.22C290.479 303.288 291.281 303.288 292.08 303.22C292.65 303.22 292.93 303.07 292.88 302.96C292.83 302.85 292.47 302.7 291.78 302.51C290.962 302.339 290.154 302.122 289.36 301.86C288.81 301.705 288.31 301.408 287.91 301C287.816 300.9 287.763 300.768 287.763 300.63C287.763 300.492 287.816 300.36 287.91 300.26C288.124 299.949 288.45 299.734 288.82 299.66C289.432 299.52 290.068 299.52 290.68 299.66C291.424 299.809 292.115 300.154 292.68 300.66C293.33 301.22 293.98 302.02 294.52 302.5C294.94 302.901 295.482 303.151 296.06 303.21C296.58 303.21 297.18 303.21 297.53 303.21C297.762 303.235 297.989 303.3 298.2 303.4C298.471 303.449 298.749 303.449 299.02 303.4C299.24 303.367 299.458 303.317 299.67 303.25C299.78 303.25 299.78 303.25 299.67 303.12L298.98 302.64Z" fill="url(#paint8_linear_1_13)"/>
<path d="M117.52 305.49C117.004 305.029 116.429 304.638 115.81 304.33C115.04 303.98 114.13 303.83 112.81 303.33C111.089 302.642 109.432 301.802 107.86 300.82C106.37 299.928 104.991 298.864 103.75 297.65C103.203 297.145 102.814 296.492 102.63 295.77C102.54 295.45 102.54 295.45 102.22 295.47C101.753 295.521 101.28 295.477 100.83 295.34C100.4 295.15 100.14 294.74 99.73 293.6C99.1788 292.068 98.7311 290.502 98.39 288.91C98.1395 287.572 97.9725 286.219 97.89 284.86C97.9063 284.367 97.7776 283.88 97.52 283.46C96.993 282.492 96.532 281.49 96.14 280.46C95.7604 279.442 95.5281 278.374 95.45 277.29C95.3413 276.109 95.385 274.92 95.58 273.75C95.7968 272.653 96.0942 271.573 96.47 270.52C96.7 269.85 96.7 269.85 96.47 269.69C96.0553 269.436 95.6668 269.141 95.31 268.81C95.1837 268.677 95.0857 268.52 95.0221 268.348C94.9585 268.176 94.9305 267.993 94.94 267.81C95.0073 267.301 95.1848 266.813 95.46 266.38C95.87 265.61 96.56 264.44 97.12 263.45C97.68 262.46 98.12 261.72 98.51 261.07C98.8641 260.577 99.2517 260.11 99.67 259.67C99.89 259.43 99.89 259.43 99.87 258.92C99.8294 258.106 99.8494 257.291 99.93 256.48C100.02 255.48 100.28 254.6 100.51 253.03C100.74 251.46 100.93 249.21 101.23 247.18C101.53 245.15 101.96 243.26 102.23 241.81C102.399 240.589 102.67 239.385 103.04 238.21C103.406 237.313 103.844 236.446 104.35 235.62C104.466 235.483 104.553 235.323 104.607 235.152C104.66 234.98 104.678 234.799 104.66 234.62C104.66 234.14 104.66 233.17 104.72 232.46C104.741 231.942 104.821 231.429 104.96 230.93C105.047 230.633 105.154 230.342 105.28 230.06C105.321 229.849 105.321 229.631 105.28 229.42C105.28 228.96 105.28 228.04 105.21 227.32C105.14 226.6 105.08 226.07 105.04 225.81C105 225.55 105.04 225.55 104.84 225.55C104.484 225.534 104.139 225.424 103.84 225.23C103.305 224.821 102.85 224.316 102.5 223.74C102.05 223.07 101.66 222.28 101.29 221.8C100.92 221.32 100.6 221.13 100.12 220.42C99.5596 219.516 99.0842 218.562 98.7 217.57C98.4669 216.972 98.2928 216.352 98.18 215.72C98.18 215.42 98.18 215.42 97.89 215.28C97.4106 214.998 96.9645 214.662 96.56 214.28C95.97 213.76 95.28 213 94.78 212.46C94.388 211.979 93.9012 211.584 93.35 211.3C92.71 210.99 91.75 210.65 91.04 210.35C90.4763 210.067 89.8727 209.871 89.25 209.77C88.5808 209.753 87.9114 209.797 87.25 209.9C86.8 209.98 86.8 209.98 86.75 209.68C86.7 209.38 86.58 208.77 86.53 208.38C86.4906 208.139 86.4705 207.895 86.47 207.65C86.47 207.56 86.47 207.56 86.58 207.52C86.8367 207.467 87.098 207.441 87.36 207.44C87.75 207.44 88.31 207.5 88.59 207.52C88.87 207.54 88.89 207.52 88.91 207.2C88.93 206.88 89 206.12 89.04 205.2C89.08 204.28 89.13 203.15 89.24 202.48C89.2683 202.115 89.404 201.767 89.63 201.48C89.73 201.37 89.73 201.37 89.32 201.01C88.91 200.65 88.07 200.01 86.82 198.79C85.57 197.57 83.92 195.94 82.4 194.56C80.88 193.18 79.47 192.1 78.79 191.56C78.11 191.02 78.1 191.02 77.73 191.04L76.22 191.12C75.85 191.12 75.85 191.12 75.57 190.87C74.9654 190.248 74.4104 189.579 73.91 188.87C73.07 187.66 71.91 185.78 71.08 184.49C70.4707 183.505 69.7602 182.587 68.96 181.75C68.1966 181.033 67.4942 180.254 66.86 179.42C66.2935 178.501 65.8243 177.526 65.46 176.51C65.07 175.51 64.7 174.65 64.52 174.22C64.34 173.79 64.33 173.77 64.14 174.13C63.8062 174.814 63.4006 175.461 62.93 176.06C62.1942 177.067 61.3416 177.984 60.39 178.79C59.8275 179.247 59.1919 179.605 58.51 179.85C58.15 179.96 58.15 179.96 58 180.41C57.7803 181.099 57.5026 181.768 57.17 182.41C56.8461 182.959 56.4638 183.472 56.03 183.94C55.79 184.22 55.79 184.22 55.79 184.7C55.79 185.18 55.79 186.19 55.73 187.61C55.67 189.03 55.66 190.84 55.64 191.75C55.62 192.66 55.64 192.66 55.88 192.64C56.12 192.62 56.63 192.64 56.88 192.64C57.13 192.64 57.14 192.64 57.12 192.8C57.1 192.96 57.06 193.35 57.04 193.51C57.02 193.67 57.04 193.7 57.04 193.81C57.1378 193.953 57.2247 194.104 57.3 194.26C57.38 194.37 57.38 194.37 57.36 194.58C57.34 194.79 57.36 195.21 57.36 195.41C57.36 195.61 57.36 195.62 57.04 195.69C56.601 195.769 56.1846 195.943 55.82 196.2C55.5598 196.505 55.4273 196.899 55.45 197.3C55.3964 197.638 55.3195 197.972 55.22 198.3C55.22 198.5 55.22 198.5 55.46 198.52C55.7 198.54 56.36 198.61 56.65 198.63C56.94 198.65 56.95 198.63 57.08 198.82L57.71 199.64L58.44 200.46C58.59 200.63 58.59 200.63 58.44 200.76C58.1857 201.002 57.9038 201.214 57.6 201.39C57.1246 201.574 56.7165 201.898 56.43 202.32C56.1429 203.125 55.9744 203.967 55.93 204.82C55.78 205.92 55.56 207.28 55.26 208.51C54.96 209.74 54.59 210.88 54.4 211.44C54.2425 211.869 54.1612 212.323 54.16 212.78C54.16 213.54 54.01 215.07 53.88 216.28C53.8065 217.208 53.6253 218.124 53.34 219.01C53.1601 219.496 52.9181 219.956 52.62 220.38C52.47 220.61 52.47 220.61 52.26 221.38C51.9089 222.75 51.4439 224.088 50.87 225.38C50.0059 227.199 49.041 228.968 47.98 230.68C47.0688 232.139 46.2666 233.663 45.58 235.24C44.88 236.94 44.26 239.05 43.48 241.53C42.7 244.01 41.77 246.84 40.88 249.06C40.218 250.754 39.4221 252.392 38.5 253.96C37.83 255.08 37.34 255.73 37.1 256.07C36.86 256.41 36.86 256.4 36.88 256.72C36.9 257.04 36.93 257.67 36.95 257.99C36.97 258.31 36.95 258.3 36.77 258.32C36.59 258.34 36.17 258.32 35.97 258.32C35.77 258.32 35.71 258.32 35.3 258.84C34.89 259.36 34.14 260.35 33.3 261.28C32.5035 262.131 31.7588 263.03 31.07 263.97C30.46 264.9 30.07 265.89 29.38 266.97C28.6387 268.126 27.7954 269.214 26.86 270.22C26.177 270.907 25.4559 271.554 24.7 272.16C24.5508 272.241 24.4248 272.359 24.3338 272.503C24.2428 272.646 24.1899 272.81 24.18 272.98C24.05 273.48 23.81 274.45 23.53 275.27C23.2086 276.074 22.9544 276.904 22.77 277.75C22.62 278.75 22.62 280.01 22.42 281.05C22.2686 281.833 22.0165 282.592 21.67 283.31C21.49 283.7 21.49 283.7 21.62 283.83L22.21 284.41L22.82 284.95C22.96 285.06 22.96 285.06 22.56 285.34L21.04 286.46C20.65 286.74 20.65 286.74 20.74 287.07C20.9504 287.723 21.1076 288.392 21.21 289.07C21.36 290.07 21.45 291.28 21.5 291.92C21.55 292.56 21.5 292.53 21.84 292.68C22.4053 292.909 22.9188 293.249 23.35 293.68C24.0617 294.44 24.6278 295.325 25.02 296.29C25.49 297.35 25.76 298.52 26.12 299.46C26.4571 300.249 26.848 301.014 27.29 301.75C27.68 302.48 28.03 303.26 28.22 303.65C28.41 304.04 28.41 304.04 28.63 304.02C29.0829 303.992 29.5371 303.992 29.99 304.02C30.6634 304.05 31.3327 304.14 31.99 304.29C32.3143 304.372 32.6319 304.479 32.94 304.61C33.0514 304.645 33.1692 304.656 33.2851 304.64C33.401 304.625 33.5119 304.584 33.61 304.52C33.8349 304.343 34.0395 304.142 34.22 303.92C34.35 303.75 34.37 303.74 34.87 303.81C35.6549 303.905 36.433 304.048 37.2 304.24C37.8595 304.345 38.48 304.621 39 305.04C39.28 305.36 39.19 305.69 38.3 306.38C37.41 307.07 35.73 308.1 34.89 308.6C34.05 309.1 34.05 309.12 34.71 308.92C35.37 308.72 36.66 308.3 38.07 307.92C39.5291 307.461 41.0244 307.127 42.54 306.92C44.06 306.76 45.61 306.81 46.54 306.79C47.1864 306.817 47.831 306.704 48.43 306.46C48.97 306.21 49.64 305.84 49.98 305.66C50.32 305.48 50.31 305.47 50.85 305.47C51.39 305.47 52.49 305.47 53.66 305.47C54.7945 305.556 55.9329 305.579 57.07 305.54C57.7965 305.472 58.5158 305.341 59.22 305.15C59.7479 305.042 60.2921 305.042 60.82 305.15C61.2053 305.26 61.5801 305.404 61.94 305.58C62.2565 305.71 62.5988 305.765 62.94 305.74C63.38 305.74 64.02 305.74 64.82 305.67C65.6689 305.617 66.5209 305.661 67.36 305.8C67.9476 305.979 68.5116 306.227 69.04 306.54C69.1665 306.622 69.3141 306.666 69.465 306.666C69.6159 306.666 69.7635 306.622 69.89 306.54C70.17 306.37 70.53 306.06 71.12 305.61C71.7988 305.082 72.5455 304.648 73.34 304.32C73.9995 304.034 74.7428 304.009 75.42 304.25C75.6289 304.357 75.8088 304.513 75.9446 304.705C76.0804 304.896 76.168 305.117 76.2 305.35C76.28 305.72 76.2 305.98 75.75 306.28C75.0826 306.652 74.3949 306.986 73.69 307.28C72.93 307.65 72.28 308.02 71.94 308.21C71.6 308.4 71.62 308.4 71.94 308.4C72.26 308.4 72.94 308.4 73.87 308.34C74.8939 308.319 75.9075 308.13 76.87 307.78C77.6652 307.359 78.3769 306.797 78.97 306.12C79.56 305.53 80.18 305.02 80.48 304.76C80.78 304.5 80.77 304.5 81.02 304.52C81.4516 304.518 81.8795 304.599 82.28 304.76C82.8011 304.99 83.2942 305.278 83.75 305.62C83.9587 305.776 84.159 305.943 84.35 306.12C84.42 306.2 84.42 306.2 84.66 306.12C85.1242 305.923 85.6114 305.785 86.11 305.71C86.8332 305.618 87.561 305.568 88.29 305.56C88.79 305.56 88.83 305.56 88.48 305.35C88.13 305.14 87.43 304.74 86.65 304.25C85.9201 303.848 85.2244 303.386 84.57 302.87C84.12 302.5 84.1 302.26 84.33 302.2C84.8491 302.22 85.3575 302.353 85.82 302.59C86.62 302.93 87.73 303.45 88.66 303.92C89.59 304.39 90.35 304.81 90.73 305.02C91.11 305.23 91.1 305.22 91.66 305.13C92.7552 304.934 93.8601 304.797 94.97 304.72C96.66 304.57 98.97 304.49 100.16 304.46C101.35 304.43 101.42 304.46 101.07 304.1C100.46 303.579 99.888 303.014 99.36 302.41C98.9197 301.844 98.544 301.23 98.24 300.58C98.08 300.21 98.08 300.21 98.3 300.28C98.52 300.35 99.01 300.54 99.43 300.73C99.8285 300.924 100.239 301.091 100.66 301.23C101.04 301.282 101.415 301.37 101.78 301.49C102.151 301.76 102.487 302.076 102.78 302.43C103.18 302.85 103.71 303.36 103.97 303.62C104.23 303.88 104.23 303.86 104.41 303.86C104.713 303.878 105.017 303.878 105.32 303.86C105.596 303.79 105.884 303.79 106.16 303.86C106.664 304.126 107.203 304.321 107.76 304.44C108.65 304.61 110.07 304.65 111.54 304.85C113.01 305.05 114.54 305.37 115.61 305.54C116.27 305.655 116.94 305.712 117.61 305.71C117.86 305.82 117.86 305.82 117.52 305.49Z" fill="url(#paint9_linear_1_13)"/>
</g>
<defs>
<linearGradient id="paint0_linear_1_13" x1="12.06" y1="307.68" x2="12.06" y2="286.16" gradientUnits="userSpaceOnUse">
<stop offset="0.07" stop-color="#1899C4"/>
<stop offset="0.3" stop-color="#149EC5"/>
<stop offset="0.43" stop-color="#10A4C7"/>
<stop offset="0.59" stop-color="#35B3D0"/>
<stop offset="0.72" stop-color="#4FBCD6"/>
<stop offset="0.8" stop-color="#58C0D8"/>
</linearGradient>
<linearGradient id="paint1_linear_1_13" x1="142.95" y1="175.95" x2="142.95" y2="3.33652e-06" gradientUnits="userSpaceOnUse">
<stop offset="0.07" stop-color="#1899C4"/>
<stop offset="0.3" stop-color="#149EC5"/>
<stop offset="0.43" stop-color="#10A4C7"/>
<stop offset="0.59" stop-color="#35B3D0"/>
<stop offset="0.72" stop-color="#4FBCD6"/>
<stop offset="0.8" stop-color="#58C0D8"/>
</linearGradient>
<linearGradient id="paint2_linear_1_13" x1="120.91" y1="24.2" x2="120.91" y2="16.62" gradientUnits="userSpaceOnUse">
<stop offset="0.07" stop-color="#1899C4"/>
<stop offset="0.3" stop-color="#149EC5"/>
<stop offset="0.43" stop-color="#10A4C7"/>
<stop offset="0.59" stop-color="#35B3D0"/>
<stop offset="0.72" stop-color="#4FBCD6"/>
<stop offset="0.8" stop-color="#58C0D8"/>
</linearGradient>
<linearGradient id="paint3_linear_1_13" x1="141.04" y1="322.69" x2="141.04" y2="133.59" gradientUnits="userSpaceOnUse">
<stop offset="0.07" stop-color="#1899C4"/>
<stop offset="0.3" stop-color="#149EC5"/>
<stop offset="0.43" stop-color="#10A4C7"/>
<stop offset="0.59" stop-color="#35B3D0"/>
<stop offset="0.72" stop-color="#4FBCD6"/>
<stop offset="0.8" stop-color="#58C0D8"/>
</linearGradient>
<linearGradient id="paint4_linear_1_13" x1="138.95" y1="197.89" x2="138.95" y2="190.68" gradientUnits="userSpaceOnUse">
<stop offset="0.07" stop-color="#1899C4"/>
<stop offset="0.3" stop-color="#149EC5"/>
<stop offset="0.43" stop-color="#10A4C7"/>
<stop offset="0.59" stop-color="#35B3D0"/>
<stop offset="0.72" stop-color="#4FBCD6"/>
<stop offset="0.8" stop-color="#58C0D8"/>
</linearGradient>
<linearGradient id="paint5_linear_1_13" x1="137.91" y1="274.43" x2="137.91" y2="249.21" gradientUnits="userSpaceOnUse">
<stop offset="0.07" stop-color="#1899C4"/>
<stop offset="0.3" stop-color="#149EC5"/>
<stop offset="0.43" stop-color="#10A4C7"/>
<stop offset="0.59" stop-color="#35B3D0"/>
<stop offset="0.72" stop-color="#4FBCD6"/>
<stop offset="0.8" stop-color="#58C0D8"/>
</linearGradient>
<linearGradient id="paint6_linear_1_13" x1="143.36" y1="197.89" x2="143.36" y2="190.68" gradientUnits="userSpaceOnUse">
<stop offset="0.07" stop-color="#1899C4"/>
<stop offset="0.3" stop-color="#149EC5"/>
<stop offset="0.43" stop-color="#10A4C7"/>
<stop offset="0.59" stop-color="#35B3D0"/>
<stop offset="0.72" stop-color="#4FBCD6"/>
<stop offset="0.8" stop-color="#58C0D8"/>
</linearGradient>
<linearGradient id="paint7_linear_1_13" x1="143.83" y1="274.43" x2="143.83" y2="249.12" gradientUnits="userSpaceOnUse">
<stop offset="0.07" stop-color="#1899C4"/>
<stop offset="0.3" stop-color="#149EC5"/>
<stop offset="0.43" stop-color="#10A4C7"/>
<stop offset="0.59" stop-color="#35B3D0"/>
<stop offset="0.72" stop-color="#4FBCD6"/>
<stop offset="0.8" stop-color="#58C0D8"/>
</linearGradient>
<linearGradient id="paint8_linear_1_13" x1="233.85" y1="308.92" x2="233.85" y2="165.68" gradientUnits="userSpaceOnUse">
<stop offset="0.07" stop-color="#1899C4"/>
<stop offset="0.3" stop-color="#149EC5"/>
<stop offset="0.43" stop-color="#10A4C7"/>
<stop offset="0.59" stop-color="#35B3D0"/>
<stop offset="0.72" stop-color="#4FBCD6"/>
<stop offset="0.8" stop-color="#58C0D8"/>
</linearGradient>
<linearGradient id="paint9_linear_1_13" x1="69.21" y1="309.07" x2="69.21" y2="173.87" gradientUnits="userSpaceOnUse">
<stop offset="0.07" stop-color="#1899C4"/>
<stop offset="0.3" stop-color="#149EC5"/>
<stop offset="0.43" stop-color="#10A4C7"/>
<stop offset="0.59" stop-color="#35B3D0"/>
<stop offset="0.72" stop-color="#4FBCD6"/>
<stop offset="0.8" stop-color="#58C0D8"/>
</linearGradient>
<clipPath id="clip0_1_13">
<rect width="299.73" height="322.69" fill="white"/>
</clipPath>
</defs>
</svg>
